<svg xmlns="http://www.w3.org/2000/svg" viewBox="0 0 670.95 321.09" class="feet">
  <title>Foot-Reflexology-Chart-2</title>
  <g id="Feet">
    <g id="left-foot">
      <path class="liver" d="M143.71,155s8,27.34,8.24,30c6.38.19,43.38,0,43.38,0s1.49-58.68,2.86-61.93-15.62,7.13-24.12,7.13H142.19Z" transform="translate(-5.55 -0.06)"/>
      <path class="gall-bladder" d="M171.19,158.63a7.46,7.46,0,0,0-4.68,9.45l.06.18c1.13,2.25,4.88,5.63,9.13,3.75,3.63-1.6,4.54-6.5,3-9.5S173.08,157.88,171.19,158.63Z" transform="translate(-5.55 -0.06)"/>
      <path class="small-intestine" d="M226.85,207.63s3.9,44.48,5.65,48.56-26.41,9.76-34.75,10.13A112,112,0,0,1,179,265s2.85-58.21,2.63-61.46C200.32,206.13,204.74,206.55,226.85,207.63Z" transform="translate(-5.55 -0.06)"/>
      <path class="stomach" d="M198.19,123.13s-4.68,28.63-3.78,36.25,1.83,25.75,1.83,25.75,29.43,2.75,30.56,1.63.26-23.62,2.88-31.12,10.5-23.25,10.5-23.25-19.25-.37-25.5-3.87S202.32,122.5,198.19,123.13Z" transform="translate(-5.55 -0.06)"/>
      <path class="adrenals" d="M205.07,152.88c5.91,2.55,6.88,8.75,5.88,11s-9.21,3.78-12.67,1.62-7-8.62-5.08-11.12S198.69,150.13,205.07,152.88Z" transform="translate(-5.55 -0.06)"/>
      <path class="diaphragm" d="M157.49,124.73s11.57,1.85,18.07,0,14.83-7.19,23.75-6.52,17.42,5.85,25.09,7.34a139.37,139.37,0,0,0,18.17,1.82l-2.37,5s-12.31.24-21.13-2.3-13.07-6.87-20.87-7-11.43,6.22-20.53,6.67-18.79.45-18.79.45Z" transform="translate(-5.55 -0.06)"/>
      <path class="elbow" d="M152,185.06h12.28S162,202,162.57,203.19s-7.75.35-7.75.35S154.17,189.41,152,185.06Z" transform="translate(-5.55 -0.06)"/>
      <path class="leg" d="M157.54,258.14l14.53,5.47s-6.93-15.43-5.82-30.56a77.49,77.49,0,0,0-4-30.52l-7.44,1S158.09,244.38,157.54,258.14Z" transform="translate(-5.55 -0.06)"/>
      <path class="lung-chest" id="lung-chest-left" d="M149.23,90.38s23.5-5.5,26.83-9.17,32.33,3.17,36.83,1,22-7.83,22-7.83l9.45,1.22s4.34,27.41,2.28,37a95.3,95.3,0,0,1-5.11,15s-7.73,1.42-18.43-2.25-18.75-7.77-24.83-7.12-16.13,5.44-24.17,6.92a49.24,49.24,0,0,1-16.61-.34Z" transform="translate(-5.55 -0.06)"/>
      <path class="shoulder" d="M145.63,153.82s15.44,2.86,15.27-8.14-3.49-22.72-5-27.56-2.38-28.53-2.38-28.53l-9.8.75a46.66,46.66,0,0,0-1.54,10.38C141.56,111.25,147.13,152.58,145.63,153.82Z" transform="translate(-5.55 -0.06)"/>
      <path class="solar-plexus" d="M199.31,107.21c7.25,0,6.77,5.5,6.77,8.17s-2,5.67-6.77,5.67-6.56-4.17-6.56-6.92S194.39,107.21,199.31,107.21Z" transform="translate(-5.55 -0.06)"/>
      <path class="trapezius" d="M176.33,66.83s1.36,14.42.36,15.42,14,3.43,20.63,3.15,16.92-1.72,16.92-1.72-2.54-17.27-2.17-20.39-12,5.75-18.37,5.25S176.33,66.83,176.33,66.83Z" transform="translate(-5.55 -0.06)"/>
      <path class="ear" d="M138.63,75,141,92.13S155,90.35,160.18,88s16.06-3.93,16.82-6-.53-15.5-.53-15.5-1.22,1.15-1.56-2-.61-9.38-.61-9.38-6,4.19-10.33,4.5-10.37-3.33-10.37-3.33,4.56,15.27,5.82,19.69c.74,2.6.42,4.51-1.08,4.64s-2.17-5.17-2.42-6.79c-5.19,1.25-5.14,2-8.83,2.23A33.59,33.59,0,0,1,138.63,75Z" transform="translate(-5.55 -0.06)"/>
      <path class="ascending-colon" d="M166.12,182.19c-4,3.06-5.92,7.81-3.55,22.56s4.13,18.13,3.75,27-2.81,34.29,10.91,32.89,12.84-7.52,9.59-26.52-3.68-31.75-3.25-33c4.63,1.25,41.25,3.92,43.29,2.5s-.78-21.25-.78-21.25S170.16,179.13,166.12,182.19Z" transform="translate(-5.55 -0.06)"/>
      <path class="eye" d="M176.44,66.5c.39-.17,2.2-.54,1.75-3.92s-.66-7.46-1.55-10.83-2.43-11.42-2.43-11.42,4.29,3.23,8.85,2.23a69.33,69.33,0,0,0,11.15-4.06s-.71,7.68-.52,10,.2,5.7,1.54,6,1.83-.91,2.08-5.79-1.59-16.57-1.59-16.57,6.47,3.2,10.22,3.07,11.38-2.46,11.38-2.46L215.25,46s-1.7,8.55-1,11.17a24.51,24.51,0,0,0,1.8,4.73s-15.5,6-21.46,6.87c-4.29.6-9.13.5-16.75-.5C176.7,68.14,176,66.68,176.44,66.5Z" transform="translate(-5.55 -0.06)"/>
      <path class="esophagus" d="M243.32,123.68s-22.58-12.79-26.92-29.46c-2.48-9.53-4.57-21-4.46-28.68.09-5.78,2.5-12.89,2.16-9.29a8,8,0,0,0,2.37,6.1S221,87.68,230,98c4.82,5.48,16.31,16.13,16.31,16.13Z" transform="translate(-5.55 -0.06)"/>
      <path class="thyroid" d="M247.18,105.91s.14-2.41,0-5.56a41,41,0,0,0-.47-5S235,92.21,230.07,83s-10.34-22.76-12.35-21.88c-.4.17-1.44,0-1.46.57A59.22,59.22,0,0,0,217.33,71c.58,2.31,6.89,17.33,11.51,22.5S247.18,105.91,247.18,105.91Z" transform="translate(-5.55 -0.06)"/>
      <path class="nose" d="M241.82,45.68v8.25s9.7,4.32,10.58,4.84c4.08-6.6,10.9-17.67,10.3-20.31-3.21,2.47-8.94,5.65-12.22,6.54A32.13,32.13,0,0,1,241.82,45.68Z" transform="translate(-5.55 -0.06)"/>
      <path class="neck" d="M240,53.29c1.84-.56,11.32-1,12.41,5.51-3.52,5.46-6.87,9.81-8,17.09a53.58,53.58,0,0,1-9.74-.93l.83-18.83A10.69,10.69,0,0,1,240,53.29Z" transform="translate(-5.55 -0.06)"/>
      <path class="throat" d="M218,61s1.58,4.06,4.63,4c5.28-.14,6.81-8.5,6.06-12s-5.25-8.32-6.5-9-3.71-1.18-4.33-.4C218.61,46.6,218.78,59.86,218,61Z" transform="translate(-5.55 -0.06)"/>
      <path class="teeth-sinuses" d="M219.85,22.38s7.63,16.36,19.38,16.11,23.51-3.24,23.48-6.2a11,11,0,0,1,0,6.2s-10,11-24.37,8.45-16.52-7.38-17.92-9C218,35.16,217.89,32.38,219.85,22.38Z" transform="translate(-5.55 -0.06)"/>
      <path class="head-brain" d="M238.73,39.79c13.43,1.41,22.46-3.85,24-5.39s-.18-6.39-1.08-9S253.17.24,236.34,3s-16.46,23.29-16.46,23.29S226.82,38.54,238.73,39.79Z" transform="translate(-5.55 -0.06)"/>
      <path class="pituitary" d="M241.59,19.38c-5.08.89-4.69,5.75-4.6,7.67s4.12,4.83,6.56,4.67,6.77-2.67,5.27-6.83S244.44,18.88,241.59,19.38Z" transform="translate(-5.55 -0.06)"/>
      <path class="arm" d="M143.89,155.9c3.9-3,4.68-11.77,1.68-22.52s-2.75-35.5-2.75-36.37c-6.69-1.23-6.52,1.87-6.52,1.87s-3.44,15.63.68,30.63c1.11,4,1.72,8.13,2.58,11.5C141.91,150.17,143.89,155.9,143.89,155.9Z" transform="translate(-5.55 -0.06)"/>
      <path class="armpit" d="M139.74,85.41s9.82-.2,7.66,6.3-9.65,7.48-10.57,5.16C138,93.34,139.74,85.41,139.74,85.41Z" transform="translate(-5.55 -0.06)"/>
      <path class="lower-back" d="M158.09,266.68s1.42,24.67,9.67,34.42,15.87,19.56,35,19.56c20.56,0,34.31-16.43,35.81-29.18,1.23-10.47-2.62-24.19-3.37-27.06-7.5,3.88-22.38,9.88-35.88,10S158.09,266.68,158.09,266.68Z" transform="translate(-5.55 -0.06)"/>
      <path class="sciatic-nerve" d="M158.06,257.42v9.23s26.64,9.34,41.73,8.17,35.21-8.83,35.62-9.5-2.29-12.1-2.29-12.1-19.65,12.17-36.37,12.42S166.72,262.68,158.06,257.42Z" transform="translate(-5.55 -0.06)"/>
      <path class="appendix" d="M178.82,246.25c-5.87,0-6.5,4.63-6.5,6.63a6.5,6.5,0,0,0,6.5,6c4.5,0,6-3.87,6-6.31S182.69,246.25,178.82,246.25Z" transform="translate(-5.55 -0.06)"/>
      <path class="ureter" d="M196.63,196.57s4.15,16.75,9.48,23.56S225.75,241,225.75,241l2.46-3.54S212,224.5,208.38,217.07s-8.31-21.31-8.31-21.31Z" transform="translate(-5.55 -0.06)"/>
      <path class="pancreas" d="M205.19,169.85a31.53,31.53,0,0,0,11.34,3.34,61.5,61.5,0,0,0,11.06-.64l-.67,7.58a58.69,58.69,0,0,1-11.7.12c-5-.57-11.58-3.44-11.58-3.44Z" transform="translate(-5.55 -0.06)"/>
      <path class="duodenum" d="M203.65,176.81A44.23,44.23,0,0,0,216.06,180a57.59,57.59,0,0,0,10.94-.69l-.78,8.13a60.6,60.6,0,0,1-11.73.09c-5-.57-12-3.71-12-3.71Z" transform="translate(-5.55 -0.06)"/>
      <path class="cervical-spine" d="M238.21,294.83s-10.68-59.58-11.4-82.28-1.75-45.35,4.07-61.06c7.07-19.1,14.81-27.81,15.85-42.94,1-14.14-5-32.5-1-39.5S263.2,43.76,262.9,36.38s2.15,4.08-2.39,15.25c-3.16,7.77-5.09,11.56-6.47,15.48-.82,2.32-2,4.4-2.06,7.95-.08,18.49,6,34.2,3.76,41.41-.56,1.8-.83,4.09-1.52,6.14-2.06,6.15-5.25,13.2-10.35,23-6.81,13.09-8.84,20.29-9.12,40.11s-.92,41.52,1.37,53.65S245,280.94,238.21,294.83Z" transform="translate(-5.55 -0.06)"/>
      <path class="bladder" d="M231.61,235.92c-3.81,0-6.91,2.74-6.23,10,.52,5.63,3.11,8.73,7.53,8.25,2.3-.25,5.53-3.23,3.91-9.17S236.5,235.92,231.61,235.92Z" transform="translate(-5.55 -0.06)"/>
      <path class="kidney" d="M200.57,159c6.14,1.21,6.5,7.87,4.25,16.12s-2,10.88-1,16.5-4.31,6.5-9.4,6-15-3.83-15-17.5S186.07,156.14,200.57,159Z" transform="translate(-5.55 -0.06)"/>
      <path class="foot-outline" d="M218.32,29.38S221.07,1.3,238.74,2.63C257.48,4,264.41,29,263.66,39.46S252.83,67.8,252.08,74.13c-.83,7,1.32,21.11,1.88,23.88s4.09,15.67.5,24.75c-5.87,14.88-16.37,31.63-18.37,44.63s-2.37,57.63.38,73.38,8.13,38.25,3.25,50.5-13.25,29.38-37.5,29.38S165.85,298,165.85,298s-8.12-13-8.5-46.62-2.75-57.75-6.87-72.5-13.76-41.42-15.25-60.62c-1.7-21.88,5.25-26.37,4.5-33.5S137,68.17,137.11,63.17s3.63-10,8-10.5,8.39,1.19,10.25,11.06c1.19,6.31.73,9.94.94,12.31.29,3.35,1.06,4.88,2.06,4.63s2.25-1,.5-6.87-5.37-15.62-5.5-21.75.33-17.29,7.85-18.14c6.77-.77,13,3.39,13.4,12.77s-1.17,19.8,1.88,19.88c1.63,0,2.63-5.37-1.12-19.87s-3-31.5,7.5-31.38,11.88,12.5,11.75,16-1.58,24,1,23.25c3.7-1.13.63-17.37-1-31.62S197.62.57,206.25.56c10,0,14.51,8.42,13.8,16.3s-9.25,44.42-3.55,44.7C220.82,61.68,215.69,45.75,218.32,29.38Z" transform="translate(-5.55 -0.06)"/>
    </g>

    <g id="right-foot">
      <!-- NOTE: This right-foot group MUST have matching semantic classes (arm/eye/teeth-sinuses/etc). -->
      <path class="liver" d="M538.84,155s-8,27.34-8.24,30c-6.37.19-43.38,0-43.38,0s-1.49-58.68-2.86-61.93,15.63,7.13,24.13,7.13h31.88Z" transform="translate(-5.55 -0.06)"/>
      <path class="spleen" d="M523.23,158.63c6,2.37,6.65,9.8,5.94,11.22-1.12,2.25-8.52,8.73-13.75,6.41-7.35-3.27-1-9.5.5-12.5S521.33,157.88,523.23,158.63Z" transform="translate(-5.55 -0.06)"/>
      <path class="small-intestine" d="M455.7,207.63s-3.9,44.48-5.65,48.56,26.41,9.76,34.75,10.13A112,112,0,0,0,503.58,265s-2.85-58.21-2.62-61.46C482.23,206.13,477.81,206.55,455.7,207.63Z" transform="translate(-5.55 -0.06)"/>
      <path class="stomach" d="M484.36,123.13s4.68,28.63,3.78,36.25-1.83,25.75-1.83,25.75-29.43,2.75-30.56,1.63-.26-23.62-2.88-31.12-10.5-23.25-10.5-23.25,19.25-.37,25.5-3.87S480.23,122.5,484.36,123.13Z" transform="translate(-5.55 -0.06)"/>
      <path class="adrenals" d="M477.48,152.88c-5.91,2.55-6.87,8.75-5.87,11s9.21,3.78,12.67,1.62,7-8.62,5.08-11.12S483.86,150.13,477.48,152.88Z" transform="translate(-5.55 -0.06)"/>
      <path class="diaphragm" d="M525.06,124.73s-11.57,1.85-18.07,0-14.83-7.19-23.75-6.52-17.42,5.85-25.09,7.34A139.37,139.37,0,0,1,440,127.37l2.38,5s12.31.24,21.13-2.3,13.07-6.87,20.87-7,11.43,6.22,20.53,6.67,18.79.45,18.79.45Z" transform="translate(-5.55 -0.06)"/>
      <path class="elbow" d="M530.58,185.06H518.32S520.53,202,520,203.19s7.75.35,7.75.35S528.38,189.41,530.58,185.06Z" transform="translate(-5.55 -0.06)"/>
      <path class="leg" d="M525,258.14l-14.53,5.47s6.93-15.43,5.82-30.56a77.49,77.49,0,0,1,4-30.52l7.44,1S524.46,244.38,525,258.14Z" transform="translate(-5.55 -0.06)"/>
      <path class="lung-chest" id="lung-chest-right" d="M533.32,90.38s-23.5-5.5-26.83-9.17-32.33,3.17-36.83,1-22-7.83-22-7.83l-9.45,1.22s-4.34,27.41-2.28,37a95.3,95.3,0,0,0,5.11,15s7.73,1.42,18.43-2.25,18.75-7.77,24.83-7.12,16.13,5.44,24.17,6.92a49.24,49.24,0,0,0,16.61-.34Z" transform="translate(-5.55 -0.06)"/>
      <path class="shoulder" d="M536.92,153.82s-15.44,2.86-15.27-8.14,3.49-22.72,5-27.56S529,89.59,529,89.59l9.8.75a46.66,46.66,0,0,1,1.54,10.38C541,111.25,535.42,152.58,536.92,153.82Z" transform="translate(-5.55 -0.06)"/>
      <path class="solar-plexus" d="M483.24,107.21c-7.25,0-6.77,5.5-6.77,8.17s2,5.67,6.77,5.67,6.56-4.17,6.56-6.92S488.16,107.21,483.24,107.21Z" transform="translate(-5.55 -0.06)"/>
      <path class="trapezius" d="M506.22,66.83s-1.36,14.42-.36,15.42-14,3.43-20.62,3.15-16.93-1.72-16.93-1.72,2.54-17.27,2.17-20.39,12,5.75,18.38,5.25S506.22,66.83,506.22,66.83Z" transform="translate(-5.55 -0.06)"/>
      <path class="ear" d="M543.92,75l-2.34,17.13S527.52,90.35,522.37,88s-16.06-3.93-16.82-6,.53-15.5.53-15.5,1.22,1.15,1.56-2,.61-9.38.61-9.38,6,4.19,10.33,4.5S529,56.34,529,56.34,524.39,71.61,523.13,76c-.74,2.6-.42,4.51,1.08,4.64s2.17-5.17,2.42-6.79c5.19,1.25,5.14,2,8.83,2.23A33.59,33.59,0,0,0,543.92,75Z" transform="translate(-5.55 -0.06)"/>
      <path class="descending-colon" d="M516.43,182.19c4,3.06,7,7.94,4.59,22.69s-3.1,18-2.71,26.83c.91,20.81,4.33,30.17-13,32.93-25,4-47.68-5.46-54.78-10.39-1.9-1.32-.25-5.33,2.66-9.17,8.83,2,39.9,10.59,40.83,5.12,3.25-19,5.37-43.83,4.94-45.08-4.62,1.25-41.25,3.92-43.29,2.5s.78-21.25.78-21.25S512.39,179.13,516.43,182.19Z" transform="translate(-5.55 -0.06)"/>
      <path class="eye" d="M506.11,66.5c-.39-.17-2.2-.54-1.75-3.92s.66-7.46,1.55-10.83,2.43-11.42,2.43-11.42-4.29,3.23-8.85,2.23a69.33,69.33,0,0,1-11.15-4.06s.71,7.68.52,10-.2,5.7-1.54,6-1.83-.91-2.08-5.79,1.59-16.57,1.59-16.57-6.47,3.2-10.22,3.07-11.38-2.46-11.38-2.46L467.3,46s1.7,8.55,1,11.17a24.51,24.51,0,0,1-1.8,4.73s15.5,6,21.46,6.87c4.29.6,9.13.5,16.75-.5C505.85,68.14,506.5,66.68,506.11,66.5Z" transform="translate(-5.55 -0.06)"/>
      <path class="eye" d="M463.67,28.85s1.23,5.86-1.52,9.11-13.5,8.17-16.5,8.17a25.49,25.49,0,0,1-4.92-.42v9s5.08,3.33,9.75,2,6-4.5,6-4.5,7.33-2.68,8.09-10.5C465,37.45,463.67,28.85,463.67,28.85Z" transform="translate(-5.55 -0.06)"/>
      <path class="esophagus" d="M439.23,123.68s22.58-12.79,26.92-29.46c2.48-9.53,4.57-21,4.46-28.68-.09-5.78-2.5-12.89-2.16-9.29a8,8,0,0,1-2.37,6.1S461.58,87.68,452.53,98c-4.82,5.48-16.31,16.13-16.31,16.13Z" transform="translate(-5.55 -0.06)"/>
      <path class="thyroid" d="M435.37,105.91s-.14-2.41,0-5.56a41,41,0,0,1,.47-5S447.57,92.19,452.49,83s10.34-22.76,12.35-21.88c.4.17,1.44,0,1.46.57a59.22,59.22,0,0,1-1.07,9.23c-.58,2.31-6.89,17.33-11.51,22.5S435.37,105.91,435.37,105.91Z" transform="translate(-5.55 -0.06)"/>
      <path class="nose" d="M440.73,45.68v8.25s-9.7,4.32-10.58,4.84c-4.08-6.6-10.9-17.67-10.3-20.31,3.21,2.47,8.94,5.65,12.22,6.54A32.13,32.13,0,0,0,440.73,45.68Z" transform="translate(-5.55 -0.06)"/>
      <path class="neck" d="M442.58,53.29c-1.84-.56-11.32-1-12.41,5.51,3.52,5.46,6.87,9.81,8,17.09a53.58,53.58,0,0,0,9.74-.93l-.83-18.83A10.69,10.69,0,0,0,442.58,53.29Z" transform="translate(-5.55 -0.06)"/>
      <path class="throat" d="M464.58,61S463,65,460,65c-5.28-.14-6.81-8.5-6.06-12s5.25-8.32,6.5-9,3.71-1.18,4.33-.4C463.94,46.6,463.77,59.86,464.58,61Z" transform="translate(-5.55 -0.06)"/>
      <path class="teeth-sinuses" d="M462.7,22.38s-7.63,16.36-19.38,16.11-23.51-3.24-23.48-6.2a11,11,0,0,0,0,6.2s10,11,24.37,8.45,16.52-7.38,17.92-9C464.58,35.16,464.66,32.38,462.7,22.38Z" transform="translate(-5.55 -0.06)"/>
      <path class="head-brain" d="M443.82,39.79c-13.43,1.41-22.46-3.85-24-5.39s.18-6.39,1.08-9S429.38.24,446.21,3s16.46,23.29,16.46,23.29S455.73,38.54,443.82,39.79Z" transform="translate(-5.55 -0.06)"/>
      <path class="pituitary" d="M441,19.38c5.08.89,4.69,5.75,4.6,7.67s-4.12,4.83-6.56,4.67-6.77-2.67-5.27-6.83S438.11,18.88,441,19.38Z" transform="translate(-5.55 -0.06)"/>
      <path class="arm" d="M538.66,155.9c-3.9-3-4.68-11.77-1.68-22.52s2.75-35.5,2.75-36.37c6.69-1.23,6.52,1.87,6.52,1.87s3.44,15.63-.68,30.63c-1.11,4-1.72,8.13-2.58,11.5C540.64,150.17,538.66,155.9,538.66,155.9Z" transform="translate(-5.55 -0.06)"/>
      <path class="armpit" d="M542.81,85.41s-9.82-.2-7.66,6.3,9.65,7.48,10.57,5.16C544.58,93.34,542.81,85.41,542.81,85.41Z" transform="translate(-5.55 -0.06)"/>
      <path class="lower-back" d="M524.46,266.68s-1.42,24.67-9.67,34.42-15.87,19.56-35,19.56c-20.56,0-34.31-16.43-35.81-29.18-1.23-10.47,2.63-24.19,3.38-27.06,7.5,3.88,22.38,9.88,35.88,10S524.46,266.68,524.46,266.68Z" transform="translate(-5.55 -0.06)"/>
      <path class="sciatic-nerve" d="M524.49,257.42v9.23s-26.64,9.34-41.73,8.17-35.21-8.83-35.62-9.5,2.29-12.1,2.29-12.1,19.65,12.17,36.37,12.42S515.83,262.68,524.49,257.42Z" transform="translate(-5.55 -0.06)"/>
      <path class="rectum" d="M457,246.25c5.88,0,6.5,4.63,6.5,6.63s-1.75,4.57-6.25,4.57S451,255,451,252.57,453.14,246.25,457,246.25Z" transform="translate(-5.55 -0.06)"/>
      <path class="ureter" d="M485.92,196.57s-4.15,16.75-9.48,23.56S456.8,241,456.8,241l-2.46-3.54s16.21-12.94,19.83-20.38,8.31-21.31,8.31-21.31Z" transform="translate(-5.55 -0.06)"/>
      <path class="pancreas" d="M477.36,169.85A31.53,31.53,0,0,1,466,173.19a61.5,61.5,0,0,1-11.06-.64l.67,7.58a58.69,58.69,0,0,0,11.7.12c5-.57,11.58-3.44,11.58-3.44Z" transform="translate(-5.55 -0.06)"/>
      <path class="duodenum" d="M478.9,176.81A44.23,44.23,0,0,1,466.49,180a57.59,57.59,0,0,1-10.94-.69l.78,8.13a60.6,60.6,0,0,0,11.73.09c5-.57,12-3.71,12-3.71Z" transform="translate(-5.55 -0.06)"/>
      <path class="cervical-spine" d="M444.34,294.83s10.68-59.58,11.4-82.28,1.75-45.35-4.07-61.06c-7.09-19.11-14.81-27.81-15.85-42.95-1-14.14,5-32.5,1-39.5s-17.47-25.29-17.17-32.67S417.5,40.45,422,51.62c3.16,7.77,5.09,11.56,6.47,15.48.82,2.32,2,4.4,2.06,7.95.08,18.49-6,34.2-3.76,41.41.56,1.8.83,4.09,1.52,6.14,2.06,6.15,5.25,13.2,10.35,23,6.81,13.09,8.84,20.29,9.12,40.11s.92,41.52-1.37,53.65S437.53,280.94,444.34,294.83Z" transform="translate(-5.55 -0.06)"/>
      <path class="bladder" d="M450.94,235.92c3.81,0,6.91,2.74,6.23,10-.52,5.63-3.11,8.73-7.53,8.25-2.3-.25-5.53-3.23-3.91-9.17S446.05,235.92,450.94,235.92Z" transform="translate(-5.55 -0.06)"/>
      <path class="kidney" d="M482,159c-6.14,1.21-6.5,7.87-4.25,16.12s2,10.88,1,16.5,4.31,6.5,9.4,6,15-3.83,15-17.5S496.48,156.14,482,159Z" transform="translate(-5.55 -0.06)"/>
      <path class="foot-outline" d="M464.23,29.38S461.48,1.3,443.81,2.63C425.07,4,418.14,29,418.89,39.46s10.83,28.34,11.58,34.67c.83,7-1.32,21.11-1.87,23.88s-4.09,15.67-.5,24.75c5.88,14.88,16.38,31.63,18.38,44.63s2.38,57.63-.37,73.38S438,279,442.86,291.27s13.25,29.38,37.5,29.38S516.74,298,516.74,298s8.13-13,8.5-46.62,2.75-57.75,6.88-72.5,13.76-41.42,15.25-60.62c1.7-21.88-5.25-26.37-4.5-33.5s2.75-16.62,2.63-21.62-3.62-10-8-10.5-8.39,1.19-10.25,11.06c-1.19,6.31-.73,9.94-.94,12.31-.29,3.35-1.06,4.88-2.06,4.63s-2.25-1-.5-6.87,5.38-15.62,5.5-21.75-.33-17.29-7.85-18.14c-6.77-.77-13,3.39-13.4,12.77s1.17,19.8-1.87,19.88c-1.62,0-1.62-5.37,1.13-19.87s3-31.5-7.5-31.38-11.87,12.5-11.75,16,1.58,24-1,23.25c-3.7-1.13-.62-17.37,1-31.62S485,.57,476.39.56c-10,0-14.51,8.42-13.8,16.3s9.25,44.42,3.55,44.7C461.73,61.68,466.86,45.75,464.23,29.38Z" transform="translate(-5.55 -0.06)"/>
      <path class="heart" d="M510.13,94.49c-11.51-.14-25.75,7.55-24.25,15.78s2.25,13,15.5,15.72,26.75,4.82,29.75-6.09S530.88,94.74,510.13,94.49Z" transform="translate(-5.55 -0.06)"/>
    </g>
  </g>
</svg>
